<mxfile host="app.diagrams.net" modified="2021-08-17T09:36:20.135Z" agent="5.0 (Macintosh; Intel Mac OS X 10_13_6) AppleWebKit/605.1.15 (KHTML, like Gecko) Version/13.1.2 Safari/605.1.15" etag="qMrD2wcAqDV1_AFr1X1F" version="14.9.7" type="github">
  <diagram id="piDafpqhtRUU5qUU-vj8" name="Page-1">
    <mxGraphModel dx="2073" dy="1796" grid="1" gridSize="10" guides="1" tooltips="1" connect="1" arrows="1" fold="1" page="1" pageScale="1" pageWidth="827" pageHeight="1169" math="0" shadow="0">
      <root>
        <mxCell id="0" />
        <mxCell id="1" parent="0" />
        <mxCell id="vQFEeWvpBGFFb1nP0-NQ-28" value="" style="strokeWidth=1;shadow=0;dashed=0;align=center;html=1;shape=mxgraph.mockup.containers.browserWindow;rSize=0;strokeColor2=#008cff;strokeColor3=#c4c4c4;mainText=,;recursiveResize=0;strokeColor=#FFFFFF;fontColor=#CCFFCC;fontSize=16;" vertex="1" parent="1">
          <mxGeometry x="-190" y="-240" width="1170" height="770" as="geometry" />
        </mxCell>
        <mxCell id="vQFEeWvpBGFFb1nP0-NQ-29" value="ToDo List" style="strokeWidth=1;shadow=0;dashed=0;align=center;html=1;shape=mxgraph.mockup.containers.anchor;fontSize=17;fontColor=#666666;align=left;" vertex="1" parent="vQFEeWvpBGFFb1nP0-NQ-28">
          <mxGeometry x="60" y="12" width="110" height="26" as="geometry" />
        </mxCell>
        <mxCell id="vQFEeWvpBGFFb1nP0-NQ-30" value="https://www.mytodolist.group2.com" style="strokeWidth=1;shadow=0;dashed=0;align=center;html=1;shape=mxgraph.mockup.containers.anchor;rSize=0;fontSize=17;fontColor=#666666;align=left;" vertex="1" parent="vQFEeWvpBGFFb1nP0-NQ-28">
          <mxGeometry x="130" y="60" width="250" height="26" as="geometry" />
        </mxCell>
        <mxCell id="vQFEeWvpBGFFb1nP0-NQ-31" value="" style="verticalLabelPosition=bottom;shadow=0;dashed=0;align=center;html=1;verticalAlign=top;strokeWidth=1;shape=mxgraph.mockup.containers.videoPlayer;strokeColor=#666666;strokeColor2=#008cff;strokeColor3=#c4c4c4;textColor=#666666;fillColor2=#008cff;barHeight=30;barPos=20;" vertex="1" parent="vQFEeWvpBGFFb1nP0-NQ-28">
          <mxGeometry y="100" width="1160" height="600" as="geometry" />
        </mxCell>
        <mxCell id="vQFEeWvpBGFFb1nP0-NQ-40" value="Remove all" style="rounded=1;align=center;strokeColor=none;html=1;fontColor=#ffffff;fontSize=16;fillColor=#008CFF;" vertex="1" parent="vQFEeWvpBGFFb1nP0-NQ-28">
          <mxGeometry x="560" y="560" width="126" height="43" as="geometry" />
        </mxCell>
        <mxCell id="vQFEeWvpBGFFb1nP0-NQ-59" value="MY TODO LIST" style="strokeWidth=1;shadow=0;dashed=0;align=center;html=1;shape=mxgraph.mockup.anchor;fontSize=30;fontStyle=1;whiteSpace=wrap;fontColor=#007FFF;" vertex="1" parent="vQFEeWvpBGFFb1nP0-NQ-28">
          <mxGeometry x="472.5" y="180" width="321" height="30" as="geometry" />
        </mxCell>
        <mxCell id="vQFEeWvpBGFFb1nP0-NQ-61" value="&lt;span style=&quot;color: rgba(0 , 0 , 0 , 0) ; font-family: monospace ; font-size: 0px&quot;&gt;%3CmxGraphModel%3E%3Croot%3E%3CmxCell%20id%3D%220%22%2F%3E%3CmxCell%20id%3D%221%22%20parent%3D%220%22%2F%3E%3CmxCell%20id%3D%222%22%20value%3D%22Vestibulum%20at%20eros%22%20style%3D%22strokeColor%3Dinherit%3BfillColor%3Dinherit%3BgradientColor%3Dinherit%3BfontColor%3Dinherit%3Bhtml%3D1%3Bshadow%3D0%3Bdashed%3D0%3Bshape%3Dmxgraph.bootstrap.bottomButton%3BrSize%3D5%3Bperimeter%3Dnone%3BwhiteSpace%3Dwrap%3BresizeWidth%3D1%3BresizeHeight%3D0%3Balign%3Dleft%3Bspacing%3D10%3B%22%20vertex%3D%221%22%20parent%3D%221%22%3E%3CmxGeometry%20x%3D%22149%22%20y%3D%22280%22%20width%3D%22550%22%20height%3D%2251%22%20as%3D%22geometry%22%2F%3E%3C%2FmxCell%3E%3C%2Froot%3E%3C%2FmxGraphModel%3E&lt;/span&gt;" style="html=1;shadow=0;dashed=0;shape=mxgraph.bootstrap.rrect;rSize=5;strokeColor=#DFDFDF;html=1;whiteSpace=wrap;fillColor=#FFFFFF;fontColor=#000000;fontSize=38;" vertex="1" parent="vQFEeWvpBGFFb1nP0-NQ-28">
          <mxGeometry x="400" y="240" width="500" height="300" as="geometry" />
        </mxCell>
        <mxCell id="vQFEeWvpBGFFb1nP0-NQ-62" value="" style="strokeColor=inherit;fillColor=inherit;gradientColor=inherit;fontColor=inherit;html=1;shadow=0;dashed=0;shape=mxgraph.bootstrap.topButton;rSize=5;perimeter=none;whiteSpace=wrap;resizeWidth=1;align=left;spacing=10;fontSize=20;" vertex="1" parent="vQFEeWvpBGFFb1nP0-NQ-61">
          <mxGeometry width="500" height="50" relative="1" as="geometry" />
        </mxCell>
        <mxCell id="vQFEeWvpBGFFb1nP0-NQ-63" value="" style="strokeColor=inherit;fillColor=inherit;gradientColor=inherit;fontColor=inherit;html=1;shadow=0;dashed=0;perimeter=none;whiteSpace=wrap;resizeWidth=1;align=left;spacing=10;fontSize=20;" vertex="1" parent="vQFEeWvpBGFFb1nP0-NQ-61">
          <mxGeometry width="500" height="50" relative="1" as="geometry">
            <mxPoint y="50" as="offset" />
          </mxGeometry>
        </mxCell>
        <mxCell id="vQFEeWvpBGFFb1nP0-NQ-64" value="" style="strokeColor=inherit;fillColor=inherit;gradientColor=inherit;fontColor=inherit;html=1;shadow=0;dashed=0;perimeter=none;whiteSpace=wrap;resizeWidth=1;align=left;spacing=10;fontSize=20;" vertex="1" parent="vQFEeWvpBGFFb1nP0-NQ-61">
          <mxGeometry width="500" height="50" relative="1" as="geometry">
            <mxPoint y="101" as="offset" />
          </mxGeometry>
        </mxCell>
        <mxCell id="vQFEeWvpBGFFb1nP0-NQ-65" value="" style="strokeColor=inherit;fillColor=inherit;gradientColor=inherit;fontColor=inherit;html=1;shadow=0;dashed=0;shape=mxgraph.bootstrap.bottomButton;rSize=5;perimeter=none;whiteSpace=wrap;resizeWidth=1;resizeHeight=0;align=left;spacing=10;fontSize=20;" vertex="1" parent="vQFEeWvpBGFFb1nP0-NQ-61">
          <mxGeometry y="1" width="500" height="59" relative="1" as="geometry">
            <mxPoint y="-149" as="offset" />
          </mxGeometry>
        </mxCell>
        <mxCell id="vQFEeWvpBGFFb1nP0-NQ-66" value="" style="strokeColor=inherit;fillColor=inherit;gradientColor=inherit;fontColor=inherit;html=1;shadow=0;dashed=0;shape=mxgraph.bootstrap.bottomButton;rSize=5;perimeter=none;whiteSpace=wrap;resizeWidth=1;resizeHeight=0;align=left;spacing=10;" vertex="1" parent="vQFEeWvpBGFFb1nP0-NQ-61">
          <mxGeometry y="195.33629032258065" width="500" height="51" as="geometry" />
        </mxCell>
        <mxCell id="vQFEeWvpBGFFb1nP0-NQ-77" value="Water the plants" style="rounded=1;fillColor=#F0F2F5;strokeColor=#D8DCE3;align=left;verticalAlign=middle;fontStyle=0;fontSize=20;labelPosition=right;verticalLabelPosition=middle;spacingLeft=10;html=1;shadow=0;dashed=0;" vertex="1" parent="vQFEeWvpBGFFb1nP0-NQ-61">
          <mxGeometry x="10" y="67.74193548387098" width="20" height="19.35483870967742" as="geometry" />
        </mxCell>
        <mxCell id="vQFEeWvpBGFFb1nP0-NQ-79" value="Buy an iPhone cable" style="rounded=1;fillColor=#F0F2F5;strokeColor=#D8DCE3;align=left;verticalAlign=middle;fontStyle=0;fontSize=20;labelPosition=right;verticalLabelPosition=middle;spacingLeft=10;html=1;shadow=0;dashed=0;" vertex="1" parent="vQFEeWvpBGFFb1nP0-NQ-61">
          <mxGeometry x="10" y="116.12903225806451" width="20" height="19.35483870967742" as="geometry" />
        </mxCell>
        <mxCell id="vQFEeWvpBGFFb1nP0-NQ-83" value="Call parents" style="html=1;shadow=0;dashed=0;shape=mxgraph.atlassian.checkbox_2;fillColor=#0057D8;strokeColor=none;align=left;verticalAlign=middle;fontStyle=0;fontSize=20;labelPosition=right;verticalLabelPosition=middle;spacingLeft=10;fontColor=#000000;" vertex="1" parent="vQFEeWvpBGFFb1nP0-NQ-61">
          <mxGeometry x="10" y="209.85483870967744" width="20" height="20.322580645161292" as="geometry" />
        </mxCell>
        <mxCell id="vQFEeWvpBGFFb1nP0-NQ-74" value="Feed the cat" style="rounded=1;fillColor=#F0F2F5;strokeColor=#D8DCE3;align=left;verticalAlign=middle;fontStyle=0;fontSize=20;labelPosition=right;verticalLabelPosition=middle;spacingLeft=10;html=1;shadow=0;dashed=0;" vertex="1" parent="vQFEeWvpBGFFb1nP0-NQ-61">
          <mxGeometry x="10" y="164.51612903225808" width="20" height="19.35483870967742" as="geometry" />
        </mxCell>
        <mxCell id="vQFEeWvpBGFFb1nP0-NQ-78" value="Book the opera tickets" style="html=1;shadow=0;dashed=0;shape=mxgraph.atlassian.checkbox_2;fillColor=#0057D8;strokeColor=none;align=left;verticalAlign=middle;fontStyle=0;fontSize=20;labelPosition=right;verticalLabelPosition=middle;spacingLeft=10;fontColor=#000000;" vertex="1" parent="vQFEeWvpBGFFb1nP0-NQ-61">
          <mxGeometry x="10" y="261.2903225806452" width="20" height="20.322580645161292" as="geometry" />
        </mxCell>
        <mxCell id="vQFEeWvpBGFFb1nP0-NQ-67" value="&lt;font color=&quot;#b3b3b3&quot;&gt;add task ...&lt;/font&gt;" style="strokeColor=inherit;fillColor=inherit;gradientColor=inherit;html=1;shadow=0;dashed=0;shape=mxgraph.bootstrap.bottomButton;rSize=5;perimeter=none;whiteSpace=wrap;resizeWidth=1;resizeHeight=0;align=left;spacing=10;fontSize=20;fontColor=#CCCCCC;" vertex="1" parent="vQFEeWvpBGFFb1nP0-NQ-61">
          <mxGeometry width="500" height="50" as="geometry" />
        </mxCell>
        <mxCell id="vQFEeWvpBGFFb1nP0-NQ-85" value="" style="rounded=1;align=left;fillColor=#F1F2F4;strokeColor=none;html=1;fontColor=#596780;fontSize=12;spacingLeft=26;" vertex="1" parent="vQFEeWvpBGFFb1nP0-NQ-61">
          <mxGeometry x="410" y="109.31" width="32" height="33" as="geometry" />
        </mxCell>
        <mxCell id="vQFEeWvpBGFFb1nP0-NQ-86" value="" style="shape=mxgraph.mscae.intune.subscription_portal;fillColor=#596780;strokeColor=none;fontColor=#ffffff;labelPosition=right;verticalLabelPosition=middle;align=left;verticalAlign=middle;html=1;spacingLeft=5" vertex="1" parent="vQFEeWvpBGFFb1nP0-NQ-85">
          <mxGeometry y="0.5" width="12" height="12" relative="1" as="geometry">
            <mxPoint x="10" y="-5" as="offset" />
          </mxGeometry>
        </mxCell>
        <mxCell id="vQFEeWvpBGFFb1nP0-NQ-93" value="" style="rounded=1;align=left;fillColor=#F1F2F4;strokeColor=none;html=1;fontColor=#596780;fontSize=12;spacingLeft=26;" vertex="1" parent="vQFEeWvpBGFFb1nP0-NQ-61">
          <mxGeometry x="410" y="254.95" width="32" height="33" as="geometry" />
        </mxCell>
        <mxCell id="vQFEeWvpBGFFb1nP0-NQ-94" value="" style="shape=mxgraph.mscae.intune.subscription_portal;fillColor=#596780;strokeColor=none;fontColor=#ffffff;labelPosition=right;verticalLabelPosition=middle;align=left;verticalAlign=middle;html=1;spacingLeft=5" vertex="1" parent="vQFEeWvpBGFFb1nP0-NQ-93">
          <mxGeometry y="0.5" width="12" height="12" relative="1" as="geometry">
            <mxPoint x="10" y="-5" as="offset" />
          </mxGeometry>
        </mxCell>
        <mxCell id="vQFEeWvpBGFFb1nP0-NQ-99" value="" style="rounded=1;align=left;fillColor=#F1F2F4;strokeColor=none;html=1;fontColor=#596780;fontSize=12;spacingLeft=26;" vertex="1" parent="vQFEeWvpBGFFb1nP0-NQ-61">
          <mxGeometry x="454.64" y="8.5" width="32" height="33" as="geometry" />
        </mxCell>
        <mxCell id="vQFEeWvpBGFFb1nP0-NQ-98" value="" style="dashed=0;html=1;shape=mxgraph.gmdl.plus;strokeColor=#737373;strokeWidth=2;shadow=0;" vertex="1" parent="vQFEeWvpBGFFb1nP0-NQ-61">
          <mxGeometry x="460.86000000000007" y="13.5" width="21.14" height="23" as="geometry" />
        </mxCell>
        <mxCell id="vQFEeWvpBGFFb1nP0-NQ-87" value="" style="rounded=1;align=left;fillColor=#F1F2F4;strokeColor=none;html=1;fontColor=#596780;fontSize=12;spacingLeft=26;" vertex="1" parent="vQFEeWvpBGFFb1nP0-NQ-61">
          <mxGeometry x="410" y="157.69" width="32" height="33" as="geometry" />
        </mxCell>
        <mxCell id="vQFEeWvpBGFFb1nP0-NQ-88" value="" style="shape=mxgraph.mscae.intune.subscription_portal;fillColor=#596780;strokeColor=none;fontColor=#ffffff;labelPosition=right;verticalLabelPosition=middle;align=left;verticalAlign=middle;html=1;spacingLeft=5" vertex="1" parent="vQFEeWvpBGFFb1nP0-NQ-87">
          <mxGeometry y="0.5" width="12" height="12" relative="1" as="geometry">
            <mxPoint x="10" y="-5" as="offset" />
          </mxGeometry>
        </mxCell>
        <mxCell id="vQFEeWvpBGFFb1nP0-NQ-60" value="" style="strokeColor=#999999;verticalLabelPosition=bottom;shadow=0;dashed=0;verticalAlign=top;strokeWidth=2;html=1;shape=mxgraph.mockup.misc.trashcanIcon;fontSize=38;fontColor=#007FFF;" vertex="1" parent="vQFEeWvpBGFFb1nP0-NQ-61">
          <mxGeometry x="459.28" y="257.95" width="22.72" height="30" as="geometry" />
        </mxCell>
        <mxCell id="vQFEeWvpBGFFb1nP0-NQ-91" value="" style="rounded=1;align=left;fillColor=#F1F2F4;strokeColor=none;html=1;fontColor=#596780;fontSize=12;spacingLeft=26;" vertex="1" parent="vQFEeWvpBGFFb1nP0-NQ-61">
          <mxGeometry x="410" y="60.92" width="32" height="33" as="geometry" />
        </mxCell>
        <mxCell id="vQFEeWvpBGFFb1nP0-NQ-92" value="" style="shape=mxgraph.mscae.intune.subscription_portal;fillColor=#596780;strokeColor=none;fontColor=#ffffff;labelPosition=right;verticalLabelPosition=middle;align=left;verticalAlign=middle;html=1;spacingLeft=5" vertex="1" parent="vQFEeWvpBGFFb1nP0-NQ-91">
          <mxGeometry y="0.5" width="12" height="12" relative="1" as="geometry">
            <mxPoint x="10" y="-5" as="offset" />
          </mxGeometry>
        </mxCell>
        <mxCell id="vQFEeWvpBGFFb1nP0-NQ-68" value="" style="strokeColor=#999999;verticalLabelPosition=bottom;shadow=0;dashed=0;verticalAlign=top;strokeWidth=2;html=1;shape=mxgraph.mockup.misc.trashcanIcon;fontSize=38;fontColor=#007FFF;" vertex="1" parent="1">
          <mxGeometry x="670" y="60" width="25" height="30" as="geometry" />
        </mxCell>
        <mxCell id="vQFEeWvpBGFFb1nP0-NQ-69" value="" style="strokeColor=#999999;verticalLabelPosition=bottom;shadow=0;dashed=0;verticalAlign=top;strokeWidth=2;html=1;shape=mxgraph.mockup.misc.trashcanIcon;fontSize=38;fontColor=#007FFF;" vertex="1" parent="1">
          <mxGeometry x="670" y="110" width="25" height="30" as="geometry" />
        </mxCell>
        <mxCell id="vQFEeWvpBGFFb1nP0-NQ-70" value="" style="strokeColor=#999999;verticalLabelPosition=bottom;shadow=0;dashed=0;verticalAlign=top;strokeWidth=2;html=1;shape=mxgraph.mockup.misc.trashcanIcon;fontSize=38;fontColor=#007FFF;" vertex="1" parent="1">
          <mxGeometry x="670" y="210" width="25" height="30" as="geometry" />
        </mxCell>
        <mxCell id="vQFEeWvpBGFFb1nP0-NQ-71" value="" style="strokeColor=#999999;verticalLabelPosition=bottom;shadow=0;dashed=0;verticalAlign=top;strokeWidth=2;html=1;shape=mxgraph.mockup.misc.trashcanIcon;fontSize=38;fontColor=#007FFF;" vertex="1" parent="1">
          <mxGeometry x="670" y="160" width="25" height="30" as="geometry" />
        </mxCell>
        <mxCell id="vQFEeWvpBGFFb1nP0-NQ-89" value="" style="rounded=1;align=left;fillColor=#F1F2F4;strokeColor=none;html=1;fontColor=#596780;fontSize=12;spacingLeft=26;" vertex="1" parent="1">
          <mxGeometry x="620" y="207" width="32" height="33" as="geometry" />
        </mxCell>
        <mxCell id="vQFEeWvpBGFFb1nP0-NQ-90" value="" style="shape=mxgraph.mscae.intune.subscription_portal;fillColor=#596780;strokeColor=none;fontColor=#ffffff;labelPosition=right;verticalLabelPosition=middle;align=left;verticalAlign=middle;html=1;spacingLeft=5" vertex="1" parent="vQFEeWvpBGFFb1nP0-NQ-89">
          <mxGeometry y="0.5" width="12" height="12" relative="1" as="geometry">
            <mxPoint x="10" y="-5" as="offset" />
          </mxGeometry>
        </mxCell>
      </root>
    </mxGraphModel>
  </diagram>
</mxfile>
